<?xml version="1.0" encoding="utf-8"?>
<!-- Generator: Adobe Illustrator 24.0.2, SVG Export Plug-In . SVG Version: 6.00 Build 0)  -->
<svg version="1.1" id="Capa_1" xmlns="http://www.w3.org/2000/svg" xmlns:xlink="http://www.w3.org/1999/xlink" x="0px" y="0px"
	 viewBox="0 0 170.3 235.1" style="enable-background:new 0 0 170.3 235.1;" xml:space="preserve">
<style type="text/css">
	.st0{fill:#FFFFFF;}
	.st1{fill:#231F20;}
	.st2{fill:#F3E068;}
	.st3{fill:#D1D3D4;}
</style>
<g id="_127_user_avatar_flatline">
	<path class="st0" d="M113.3,63.5c0,17.8,44,87.4-28.1,87.4S57.1,81.3,57.1,63.5s1.2-32.2,28.1-32.2S113.3,45.7,113.3,63.5z"/>
	<path class="st1" d="M85.2,151.4c-18,0-30.4-4.4-36.7-13.2c-10.6-14.8-2.6-38.9,3.4-56.6c2.6-7.6,4.8-14.2,4.8-18.1
		c0-19.1,2-32.7,28.6-32.7s28.6,13.6,28.6,32.7c0,3.9,2.2,10.5,4.8,18.1c5.9,17.6,14,41.7,3.3,56.5
		C115.6,147,103.3,151.4,85.2,151.4z M85.2,31.9c-25.6,0-27.5,12.5-27.5,31.6c0,4.1-2.2,10.7-4.8,18.5C47,99.4,39,123.2,49.4,137.6
		c6.1,8.5,18.2,12.8,35.8,12.8s29.7-4.3,35.8-12.8c10.3-14.4,2.4-38.2-3.5-55.6c-2.6-7.7-4.8-14.4-4.8-18.5
		C112.8,44.4,110.8,31.9,85.2,31.9z"/>
	<path class="st2" d="M141.6,128.5c-11.9,15-29.4,24.7-48.5,26.8c-5.3,0.6-10.6,0.6-15.9,0c-19.1-2.1-36.5-11.7-48.5-26.7
		c10-7.1,21.1-12.5,32.8-16.2c15.3-4.8,31.8-4.8,47.1,0C120.5,116,131.6,121.5,141.6,128.5z"/>
	<path class="st0" d="M72.2,109.4c0,0-15,3.3-14.8,4.3C57.6,114.8,74,147,75,147s10.2-5.6,10.2-5.6L72.2,109.4z"/>
	<path class="st1" d="M75,147.5c-0.4,0-1,0-9.5-16.5c-3.5-6.7-8.4-16.4-8.6-17.1c-0.1-0.3,0.1-0.6,0.3-0.8
		c1.1-0.9,14.5-4.5,15.2-4.1c0.1,0.1,0.2,0.2,0.2,0.3l13.1,31.9c0.1,0.2,0,0.5-0.2,0.6C82.7,143.5,76,147.5,75,147.5z M58,113.8
		c1.3,3,15.2,30.2,17.2,32.6c1-0.4,5.4-2.9,9.4-5.3L71.8,110C69.6,110.4,59.5,112.9,58,113.8z"/>
	<path class="st0" d="M97.9,109.4c0,0,15,3.3,14.8,4.3C112.4,114.8,96,147,95,147c-1,0-10.2-5.6-10.2-5.6L97.9,109.4z"/>
	<path class="st1" d="M95,147.5c-1,0-7.7-4-10.5-5.7c-0.2-0.1-0.3-0.4-0.2-0.6l13.1-31.9c0-0.1,0.1-0.2,0.2-0.3
		c0.7-0.4,14.1,3.3,15.2,4.1c0.3,0.2,0.4,0.5,0.3,0.8c-0.2,0.7-5.1,10.4-8.6,17.1C96,147.5,95.5,147.5,95,147.5z M85.5,141.1
		c3,1.9,6.2,3.7,9.4,5.3c1.9-2.3,15.9-29.4,17.2-32.6c-1.5-1-11.6-3.4-13.9-3.8L85.5,141.1z"/>
	<path class="st1" d="M100.2,117.4l-15,23.9l-15.8-23.9C76.8,115.2,92.8,115.2,100.2,117.4z"/>
	<path class="st0" d="M102.9,74.6c1.4-8.6,15.6-10.7,14.9-0.6c-0.1,3.5-1.4,6.9-3.8,9.5c-2.4,2.5-6.4,3.7-9.5,2.2"/>
	<path class="st1" d="M107.5,86.8c-1.1,0-2.2-0.2-3.2-0.7c-0.3-0.1-0.4-0.4-0.3-0.7c0.1-0.3,0.4-0.4,0.7-0.3l0,0
		c2.8,1.3,6.5,0.4,9-2.1c2.7-2.7,3.5-6.5,3.6-9.1c0.2-3.5-1.5-5.8-4.6-6.1c-3.8-0.4-8.6,2.3-9.3,6.8c0,0.3-0.2,0.5-0.5,0.6
		c-0.3,0-0.5-0.2-0.6-0.5c0-0.1,0-0.2,0-0.2c0.8-5.2,6.2-8.2,10.5-7.7c2.9,0.3,5.8,2.4,5.5,7.2c-0.2,2.9-1,6.9-3.9,9.8
		C112.6,85.8,110.1,86.8,107.5,86.8z"/>
	<path class="st0" d="M67.5,74.6C66.1,66,51.9,63.9,52.6,74c0.1,3.5,1.5,6.9,3.8,9.5c2.4,2.5,6.4,3.7,9.5,2.2"/>
	<path class="st1" d="M63,86.8c-2.6-0.1-5.1-1.1-6.9-3c-2.9-2.9-3.7-7-3.9-9.8c-0.3-4.8,2.6-6.9,5.5-7.2c4.3-0.5,9.6,2.5,10.4,7.7
		c0.1,0.3-0.1,0.6-0.4,0.6c0,0,0,0,0,0c-0.3,0-0.6-0.2-0.6-0.4c-0.7-4.6-5.5-7.3-9.3-6.8c-3.1,0.4-4.8,2.6-4.5,6.1
		c0.2,2.7,1,6.4,3.6,9.1c2.5,2.5,6.2,3.4,9,2.1c0.3-0.1,0.6-0.1,0.7,0.2c0.1,0.3,0.1,0.6-0.2,0.7c0,0-0.1,0-0.1,0
		C65.2,86.5,64.1,86.8,63,86.8z"/>
	<path class="st0" d="M69.4,117.4c0,0,3.8,8.4,15.1,8.4c9,0,15.8-8.4,15.8-8.4l-1.5-32.9H70.9L69.4,117.4z"/>
	<path class="st1" d="M84.5,126.3c-11.4,0-15.5-8.6-15.6-8.7c0-0.1,0-0.2-0.1-0.2l1.5-32.9c0-0.3,0.2-0.5,0.5-0.5h27.9
		c0.3,0,0.5,0.2,0.5,0.5l1.5,32.9c0,0.1,0,0.3-0.1,0.4C100.4,118.1,93.6,126.3,84.5,126.3z M69.9,117.3c0.5,1,4.4,8,14.6,8
		c7.9,0,14.3-6.9,15.2-8L98.2,85H71.4L69.9,117.3z"/>
	<path class="st1" d="M70.9,98.5c2.1,3.1,5,5.7,8.4,7.4c5.5,3,13.8,6.5,20.5,5.5l-1.1-13.9c-4.9,0.6-9.9,0.6-14.8,0.1
		c-4.3-0.4-8.8-0.8-12.7-2.5C70.5,94.8,70,97.2,70.9,98.5z"/>
	<path class="st1" d="M97.2,112.1c-6.7,0-14.1-3.5-18.2-5.7c-3.5-1.8-6.4-4.3-8.6-7.6c-0.7-1.2-0.7-2.7-0.1-3.9
		c0.2-0.3,0.6-0.4,1-0.2c4,1.7,8.5,2,12.6,2.4c4.9,0.5,9.8,0.5,14.7-0.1c0.1,0,0.3,0,0.4,0.1c0.1,0.1,0.2,0.2,0.2,0.4l1.1,13.9
		c0,0.3-0.2,0.5-0.4,0.5C99,112,98.1,112.1,97.2,112.1z M71.2,95.6c-0.3,0.9-0.2,1.8,0.2,2.6l0,0c2.1,3.1,4.9,5.5,8.2,7.2
		c4.4,2.4,12.7,6.3,19.7,5.5l-1-12.9c-4.8,0.5-9.6,0.5-14.4,0C79.8,97.7,75.2,97.3,71.2,95.6z M71,95.6L71,95.6z"/>
	<path class="st1" d="M85.5,81.3c-0.9,0-1.9-0.1-2.8-0.2c-0.4,0-0.8-0.3-0.9-0.6c-1.5-2.4,2.4-12.7,3.2-14.7
		c0.1-0.3,0.4-0.4,0.7-0.3c0,0,0,0,0,0c0.3,0.1,0.4,0.4,0.3,0.7c-1.7,4.5-4.2,12.3-3.2,13.8c0.1,0.1,0.1,0.1,0.2,0.1
		c1.9,0.2,3.7,0.2,5.6,0c0.3,0,0.5,0.2,0.5,0.5c0,0.2-0.2,0.4-0.4,0.5C87.5,81.2,86.5,81.3,85.5,81.3z"/>
	<path class="st0" d="M106,58.5v22.6c0,10.8-8.8,19.6-19.6,19.6h-2.3c-10.8,0-19.6-8.8-19.7-19.6V59.7l12.4-1l1.4-9.8l3.1,11.1
		l8.8-1.2c0.9-3.9,0-12.4-0.1-12.8l6.3,11.9L106,58.5z"/>
	<path class="st1" d="M86.4,101.3h-2.3c-11.1,0-20.2-9-20.2-20.1V59.7c0-0.3,0.2-0.5,0.5-0.5l11.9-1l1.4-9.4c0-0.2,0.2-0.4,0.5-0.4
		c0.2,0,0.5,0.1,0.5,0.4l3,10.7l8-1c0.7-3.9-0.1-11.8-0.2-12.2c-0.1-0.3,0-0.6,0.3-0.7c0.3-0.1,0.6,0,0.7,0.3l6.2,11.6l9.4,0.6
		c0.3,0,0.5,0.2,0.5,0.5v22.6C106.6,92.3,97.5,101.3,86.4,101.3L86.4,101.3z M65,60.2v20.9c0,10.6,8.6,19.1,19.1,19.1h2.3
		c10.5,0,19.1-8.6,19.1-19.1V59l-9.2-0.6c-0.2,0-0.3-0.1-0.4-0.3l-5.1-9.5c0.2,3,0.5,7.6-0.2,10.3c0,0.2-0.2,0.4-0.4,0.4l-8.8,1.2
		c-0.3,0-0.5-0.1-0.6-0.4l-2.4-8.7l-1.1,7.3c0,0.2-0.2,0.4-0.5,0.4L65,60.2z"/>
	<path class="st1" d="M85.2,156.2c-40.1,0-72.6-32.4-72.6-72.5c0-40.1,32.4-72.6,72.5-72.6c40.1,0,72.6,32.4,72.6,72.5
		c0,16.4-5.5,32.3-15.8,45.2C128.2,146.1,107.3,156.2,85.2,156.2z M85.2,12c-39.5,0-71.6,32.1-71.6,71.6c0,39.6,32.1,71.6,71.7,71.6
		c39.5,0,71.6-32.1,71.6-71.6C156.8,44.1,124.8,12,85.2,12L85.2,12z"/>
	<path class="st1" d="M119.4,147.5L119.4,147.5c-0.3,0-0.6-0.3-0.5-0.6c0,0,0,0,0,0l2.5-18.7c0-0.3,0.3-0.5,0.6-0.5
		c0.3,0,0.5,0.3,0.4,0.6l-2.5,18.8C119.9,147.3,119.7,147.5,119.4,147.5z"/>
	<path class="st1" d="M51,147.5c-0.3,0-0.5-0.2-0.5-0.5L48,128.3c0-0.3,0.2-0.6,0.5-0.6c0.3,0,0.5,0.2,0.6,0.5l2.5,18.7
		C51.6,147.2,51.4,147.4,51,147.5C51.1,147.5,51.1,147.5,51,147.5L51,147.5z"/>
	<path class="st3" d="M85.2,216.5c-12.7,0-23.1-10.3-23.1-23.1c0-12.7,10.3-23.1,23.1-23.1c12.7,0,23.1,10.3,23.1,23.1c0,0,0,0,0,0
		C108.3,206.2,98,216.5,85.2,216.5z M85.2,173.4c-11.1,0-20,9-20,20c0,11.1,9,20,20,20s20-9,20-20c0,0,0,0,0,0
		C105.2,182.4,96.3,173.4,85.2,173.4z"/>
	<path class="st3" d="M85.2,228.7c-0.8,0-1.5-0.7-1.5-1.5V215c0-0.8,0.7-1.5,1.5-1.5s1.5,0.7,1.5,1.5v12.2
		C86.7,228.1,86.1,228.7,85.2,228.7z"/>
	<path class="st3" d="M90.3,224.4H80.1c-0.8,0-1.5-0.7-1.5-1.5c0-0.8,0.7-1.5,1.5-1.5h10.2c0.8,0,1.5,0.7,1.5,1.5
		C91.8,223.7,91.1,224.4,90.3,224.4z"/>
</g>
</svg>
