<?xml version="1.0" encoding="utf-8"?>
<!-- Generator: Adobe Illustrator 24.0.2, SVG Export Plug-In . SVG Version: 6.00 Build 0)  -->
<svg version="1.1" id="Capa_1" xmlns="http://www.w3.org/2000/svg" xmlns:xlink="http://www.w3.org/1999/xlink" x="0px" y="0px"
	 viewBox="0 0 170.3 235.1" style="enable-background:new 0 0 170.3 235.1;" xml:space="preserve">
<style type="text/css">
	.st0{fill:#F3E068;}
	.st1{fill:#231F20;}
	.st2{fill:#FFFFFF;}
	.st3{fill:#D1D3D4;}
</style>
<g id="_127_user_avatar_flatline">
	<path class="st0" d="M143.5,128.5c-11.9,15-29.4,24.6-48.4,26.8c-5.3,0.6-10.6,0.6-15.9,0c-19.1-2.1-36.5-11.7-48.5-26.7
		c10-7.1,21.1-12.5,32.9-16.2c15.3-4.8,31.8-4.8,47.1,0C122.4,116,133.5,121.5,143.5,128.5z"/>
	<path class="st1" d="M102.2,117.4L95,155.3c-0.6,0.1-1.2,0.1-1.8,0.2c-2,0.2-4.1,0.3-6.2,0.3c-2.3,0-4.6-0.1-7-0.3
		c-0.3,0-0.6,0-1-0.1l-7.9-37.9C78.7,115.2,94.7,115.2,102.2,117.4z"/>
	<ellipse class="st2" cx="87.1" cy="63.5" rx="28.1" ry="32.2"/>
	<path class="st1" d="M87.1,96.2c-15.8,0-28.6-14.7-28.6-32.7c0-19.1,2-32.7,28.6-32.7s28.6,13.6,28.6,32.7
		C115.7,81.5,102.8,96.2,87.1,96.2z M87.1,31.9c-25.6,0-27.6,12.5-27.6,31.6c0,17.5,12.4,31.7,27.6,31.7s27.5-14.2,27.5-31.7
		C114.6,44.4,112.7,31.9,87.1,31.9L87.1,31.9z"/>
	<path class="st2" d="M104.8,74.6c1.4-8.6,15.6-10.7,14.9-0.6c-0.1,3.5-1.5,6.9-3.8,9.5c-2.4,2.5-6.4,3.7-9.5,2.2"/>
	<path class="st1" d="M109.3,86.8c-1.1,0-2.2-0.2-3.2-0.7c-0.3-0.1-0.4-0.4-0.3-0.7c0.1-0.3,0.4-0.4,0.7-0.3c2.8,1.3,6.5,0.4,9-2.1
		c2.7-2.7,3.5-6.5,3.6-9.1c0.2-3.5-1.5-5.8-4.6-6.1c-3.8-0.4-8.6,2.3-9.3,6.8c-0.1,0.3-0.3,0.5-0.6,0.4c-0.3,0-0.5-0.3-0.4-0.6
		c0,0,0,0,0,0c0.8-5.2,6.2-8.2,10.5-7.7c2.9,0.3,5.8,2.4,5.5,7.2c-0.2,2.9-1,6.9-3.9,9.8C114.4,85.8,111.9,86.8,109.3,86.8z"/>
	<path class="st2" d="M69.4,74.6C68,66,53.8,63.9,54.4,74c0.1,3.5,1.4,6.9,3.8,9.5c2.4,2.5,6.4,3.7,9.5,2.2"/>
	<path class="st1" d="M64.8,86.8c-2.6-0.1-5.1-1.1-7-3c-2.9-2.9-3.7-7-3.9-9.8c-0.3-4.8,2.6-6.9,5.5-7.2c4.3-0.5,9.6,2.5,10.5,7.7
		c0,0.3-0.1,0.6-0.4,0.6c0,0,0,0,0,0c-0.3,0-0.5-0.2-0.6-0.4c-0.7-4.6-5.5-7.3-9.3-6.8c-3,0.4-4.8,2.6-4.6,6.1
		c0.2,2.7,1,6.4,3.6,9.1c2.5,2.5,6.1,3.4,9,2.1c0.3-0.1,0.6,0,0.7,0.3c0.1,0.3,0,0.6-0.3,0.7C67,86.5,65.9,86.8,64.8,86.8z"/>
	<path class="st2" d="M71.3,117.4c0,0,3.8,8.4,15.1,8.4c6.4,0.2,12.4-3,15.8-8.4l-1.5-32.9H72.7L71.3,117.4z"/>
	<path class="st1" d="M86.3,126.3c-11.4,0-15.5-8.6-15.5-8.7c0-0.1,0-0.2,0-0.2l1.5-32.9c0-0.3,0.2-0.5,0.5-0.5h27.9
		c0.3,0,0.5,0.2,0.5,0.5l1.5,32.9c0,0.1,0,0.2-0.1,0.3C99.1,123.2,92.9,126.4,86.3,126.3z M71.8,117.3c0.5,1,4.4,8,14.5,8
		c6.1,0.1,11.9-2.9,15.2-8L100.1,85H73.3L71.8,117.3z"/>
	<path class="st1" d="M72.7,98.5c2.2,3.1,5,5.6,8.4,7.4c5.5,3,13.8,6.5,20.5,5.5l-1.1-13.9c-4.9,0.6-9.9,0.6-14.8,0.1
		c-4.3-0.4-8.8-0.8-12.7-2.5C72.3,94.8,71.9,97.2,72.7,98.5z"/>
	<path class="st1" d="M99.1,112.1c-6.7,0-14.1-3.5-18.2-5.7c-3.5-1.8-6.4-4.3-8.6-7.6c-0.7-1.2-0.7-2.7-0.1-3.9
		c0.2-0.3,0.7-0.4,1-0.2c4,1.7,8.5,2,12.6,2.4c4.9,0.5,9.8,0.5,14.7-0.1c0.1,0,0.3,0,0.4,0.1c0.1,0.1,0.2,0.2,0.2,0.4l1,13.9
		c0,0.3-0.2,0.5-0.4,0.5C100.9,112,100,112.1,99.1,112.1z M73,95.6c-0.3,0.9-0.2,1.8,0.2,2.6l0,0c2.1,3.1,4.9,5.5,8.2,7.2
		c4.4,2.4,12.7,6.3,19.7,5.5l-1-12.9c-4.8,0.5-9.6,0.5-14.4,0C81.6,97.7,77.1,97.3,73,95.6L73,95.6z M72.8,95.6L72.8,95.6z"/>
	<path class="st2" d="M85.9,100.7h2.3c10.8,0,19.6-8.8,19.6-19.6c0,0,0,0,0,0V50c0,0-6.8,2-20.8,2s-20.8-2-20.8-2v31.1
		C66.3,91.9,75.1,100.7,85.9,100.7z"/>
	<path class="st1" d="M107.9,50v31.1c0,10.8-8.8,19.6-19.6,19.6c0,0,0,0,0,0h-2.3c-10.8,0-19.6-8.8-19.6-19.6V50c0,0,6.8,2,20.8,2
		S107.8,50,107.9,50 M66.3,49c-0.2,0-0.4,0.1-0.6,0.2c-0.3,0.2-0.4,0.5-0.4,0.8v31.1c0,11.4,9.3,20.6,20.7,20.7h2.3
		c11.4,0,20.7-9.3,20.7-20.7V50c0-0.3-0.2-0.6-0.4-0.8c-0.2-0.1-0.4-0.2-0.6-0.2c-0.1,0-0.2,0-0.3,0c-0.1,0-6.9,1.9-20.5,1.9
		S66.6,49,66.6,49C66.5,49,66.4,49,66.3,49L66.3,49z"/>
	<path class="st1" d="M87.4,81.3c-0.9,0-1.9-0.1-2.8-0.2c-0.4,0-0.7-0.3-0.9-0.6c-1.5-2.4,2.4-12.7,3.2-14.7
		c0.1-0.3,0.4-0.4,0.7-0.3c0.3,0.1,0.4,0.4,0.3,0.7c-1.7,4.5-4.2,12.3-3.2,13.8c0,0.1,0.1,0.1,0.2,0.1c1.8,0.2,3.7,0.2,5.6,0
		c0.3,0,0.6,0.2,0.6,0.5c0,0.3-0.2,0.5-0.4,0.6c0,0,0,0,0,0C89.4,81.3,88.4,81.3,87.4,81.3z"/>
	<path class="st1" d="M87.1,156.2c-40.1,0-72.6-32.4-72.6-72.5c0-40.1,32.4-72.6,72.5-72.6s72.6,32.4,72.6,72.5
		c0,16.4-5.5,32.4-15.8,45.2C130.1,146.1,109.2,156.2,87.1,156.2z M87.1,12c-39.5,0-71.6,32.1-71.6,71.6c0,39.6,32,71.6,71.6,71.7
		c21.8,0,42.5-9.9,56.1-27c10.2-12.7,15.7-28.4,15.6-44.7C158.7,44.1,126.6,12,87.1,12L87.1,12z"/>
	<polygon class="st2" points="86.7,134.4 81.4,130.4 86.7,126.3 92,130.4 	"/>
	<path class="st2" d="M93.3,155.4c-2,0.2-4.1,0.3-6.2,0.3c-2.3,0-4.6-0.1-7-0.3l4.8-22.3v-0.3h3.5l0.1,0.3L93.3,155.4z"/>
	<path class="st1" d="M121.3,147.5L121.3,147.5c-0.4,0-0.6-0.3-0.5-0.6c0,0,0,0,0,0l2.5-18.7c0-0.3,0.3-0.5,0.6-0.5
		c0.3,0,0.5,0.3,0.5,0.6l-2.5,18.8C121.8,147.3,121.5,147.5,121.3,147.5z"/>
	<path class="st1" d="M52.9,147.5c-0.3,0-0.5-0.2-0.5-0.5l-2.5-18.8c0-0.3,0.2-0.5,0.4-0.6c0.3,0,0.5,0.2,0.6,0.5l2.5,18.7
		C53.5,147.2,53.3,147.4,52.9,147.5L52.9,147.5z"/>
	<path class="st3" d="M83.3,221.7c-12.7,0-23-10.4-23-23.1c0-12.7,10.4-23,23.1-23c12.7,0,23,10.4,23,23.1c0,6.1-2.5,12-6.8,16.3
		l0,0C95.3,219.3,89.4,221.7,83.3,221.7z M83.3,178.6c-11.1,0-20,9-20,20.1c0,11.1,9,20,20.1,20c11.1,0,20-9,20-20.1
		c0-5.3-2.1-10.4-5.9-14.1C93.7,180.7,88.6,178.6,83.3,178.6z M98.5,213.9L98.5,213.9z"/>
	<path class="st3" d="M98.5,184.9c-0.4,0-0.8-0.2-1.1-0.4c-0.6-0.6-0.6-1.5,0-2.1c0,0,0,0,0,0l6-6c0.6-0.6,1.6-0.6,2.2,0
		c0.6,0.6,0.6,1.5,0,2.1c0,0,0,0,0,0l-6,6C99.3,184.7,99,184.9,98.5,184.9z"/>
	<path class="st3" d="M105.9,184.5c-0.8,0-1.4-0.6-1.5-1.4l-0.4-5.1l-5.2-0.6c-0.8-0.1-1.5-0.8-1.4-1.7s0.8-1.5,1.7-1.4l0,0l6.5,0.7
		c0.7,0.1,1.3,0.7,1.4,1.4l0.6,6.4c0.1,0.8-0.6,1.6-1.4,1.6c0,0,0,0,0,0L105.9,184.5z"/>
</g>
</svg>
